<?xml version="1.0" encoding="UTF-8" standalone="yes"?>
<svg version="1.2" width="48" height="48" baseProfile="tiny-ps" xmlns="http://www.w3.org/2000/svg">
  <title>bimi-svg-tiny-12-ps</title>
  <path d="M0 0 C15.84 0 31.68 0 48 0 C48 15.84 48 31.68 48 48 C32.16 48 16.32 48 0 48 C0 32.16 0 16.32 0 0 Z " fill="#121212" transform="translate(0,0)"/>
  <path d="M0 0 C3.2500556 -0.02698386 6.49988686 -0.04683141 9.75 -0.0625 C10.67039062 -0.07087891 11.59078125 -0.07925781 12.5390625 -0.08789062 C13.42851562 -0.09111328 14.31796875 -0.09433594 15.234375 -0.09765625 C16.05131836 -0.10289307 16.86826172 -0.10812988 17.70996094 -0.11352539 C20 0 20 0 22.23535156 0.56860352 C22.81768555 0.71096436 23.40001953 0.8533252 24 1 C24.33 0.67 24.66 0.34 25 0 C26.9609375 -0.203125 26.9609375 -0.203125 29.375 -0.25 C30.16648437 -0.27578125 30.95796875 -0.3015625 31.7734375 -0.328125 C34 0 34 0 35.77734375 1.12890625 C37.55179946 3.8444471 37.29093143 5.98112572 37.1875 9.1875 C37.14689453 10.81751953 37.14689453 10.81751953 37.10546875 12.48046875 C37.07066406 13.31191406 37.03585938 14.14335937 37 15 C34.03 15 31.06 15 28 15 C27.505 10.05 27.505 10.05 27 5 C26.01 5 25.02 5 24 5 C23.67 8.3 23.34 11.6 23 15 C20.03 15 17.06 15 14 15 C14 11.37 14 7.74 14 4 C13.01 4.33 12.02 4.66 11 5 C10.67 8.3 10.34 11.6 10 15 C6.7 15 3.4 15 0 15 C0 10.05 0 5.1 0 0 Z " fill="#EEEEEE" transform="translate(8,17)"/>
  <path d="M0 0 C1.43739513 -0.02712066 2.87493863 -0.04645067 4.3125 -0.0625 C5.51326172 -0.07990234 5.51326172 -0.07990234 6.73828125 -0.09765625 C9 0 9 0 12 1 C11.67 4.96 11.34 8.92 11 13 C8.03 13 5.06 13 2 13 C2 9.04 2 5.08 2 1 C1.34 0.67 0.68 0.34 0 0 Z " fill="#F9F9F9" transform="translate(20,19)"/>
  <path d="M0 0 C2.64 0 5.28 0 8 0 C9.06671952 3.20015856 8.94845472 4.88544294 8.5625 8.1875 C8.46066406 9.08855469 8.35882813 9.98960938 8.25390625 10.91796875 C8.17011719 11.60503906 8.08632813 12.29210938 8 13 C5.36 13 2.72 13 0 13 C0 8.71 0 4.42 0 0 Z " fill="#F6F6F6" transform="translate(10,19)"/>
  <path d="M0 0 C3.2500556 -0.02698386 6.49988686 -0.04683141 9.75 -0.0625 C10.67039062 -0.07087891 11.59078125 -0.07925781 12.5390625 -0.08789062 C13.42851562 -0.09111328 14.31796875 -0.09433594 15.234375 -0.09765625 C16.05131836 -0.10289307 16.86826172 -0.10812988 17.70996094 -0.11352539 C20 0 20 0 22.23535156 0.56860352 C22.81768555 0.71096436 23.40001953 0.8533252 24 1 C24.33 0.67 24.66 0.34 25 0 C26.51928038 -0.07179964 28.04167482 -0.08392007 29.5625 -0.0625 C30.38878906 -0.05347656 31.21507813 -0.04445313 32.06640625 -0.03515625 C32.70449219 -0.02355469 33.34257813 -0.01195313 34 0 C34 0.33 34 0.66 34 1 C31.36 1.33 28.72 1.66 26 2 C26.33 2.66 26.66 3.32 27 4 C26.09636719 3.91621094 25.19273438 3.83242188 24.26171875 3.74609375 C23.08222656 3.64425781 21.90273438 3.54242187 20.6875 3.4375 C19.51574219 3.33308594 18.34398437 3.22867187 17.13671875 3.12109375 C13.96967425 2.81422566 13.96967425 2.81422566 11 4 C10.67 3.67 10.34 3.34 10 3 C8.65252916 2.76924918 7.29622435 2.58846937 5.9375 2.4375 C4.638125 2.293125 3.33875 2.14875 2 2 C2 6.29 2 10.58 2 15 C1.34 15 0.68 15 0 15 C0 10.05 0 5.1 0 0 Z " fill="#A6A6A6" transform="translate(8,17)"/>
  <path d="M0 0 C0.99 0 1.98 0 3 0 C3 3.3 3 6.6 3 10 C2.01 10 1.02 10 0 10 C0 6.7 0 3.4 0 0 Z " fill="#222222" transform="translate(18,22)"/>
  <path d="M0 0 C0.99 0.99 1.98 1.98 3 3 C2.6875 6.6875 2.6875 6.6875 2 10 C3.32 10.33 4.64 10.66 6 11 C4.02 11 2.04 11 0 11 C0 7.37 0 3.74 0 0 Z " fill="#D0D0D0" transform="translate(22,21)"/>
</svg>