<svg xmlns="http://www.w3.org/2000/svg" style="display:none;">
<symbol viewBox="0 0 20 20" id="arrow-down">
    <path d="M10,0 C4.4771525,0 0,4.4771525 0,10 C0,15.5228475 4.4771525,20 10,20 C15.5228475,20 20,15.5228475 20,10 C20,4.4771525 15.5228475,0 10,0 Z M17,7 C17,6.44766667 16.5523333,6 16,6 C15.7303333,6 15.486,6.107 15.306,6.28033333 L15.3056667,6.28 L9.99766667,11.588 L4.75833333,6.34866667 C4.575,6.13533333 4.30333333,6 4,6 C3.44766667,6 3,6.44766667 3,7 C3,7.26833333 3.106,7.512 3.27833333,7.69166667 L3.27566667,7.69433333 L9.27566667,13.6943333 L9.276,13.694 C9.458,13.8826667 9.713,14 9.99566667,14 L9.998,14 L10.0003333,14 C10.283,14 10.538,13.8826667 10.72,13.694 L10.7203333,13.6943333 L16.7203333,7.69433333 L16.72,7.694 C16.893,7.51433333 17,7.26966667 17,7 Z" fill-rule="evenodd"/>
</symbol>
<symbol viewBox="0 0 20 20" id="arrow-up">
    <path d="M10,20 C15.5228475,20 20,15.5228475 20,10 C20,4.4771525 15.5228475,0 10,0 C4.4771525,0 0,4.4771525 0,10 C0,15.5228475 4.4771525,20 10,20 Z M16.7196667,11.306 L10.72,5.30566667 L10.7196667,5.306 C10.5376667,5.11733333 10.2826667,5 10,5 L9.99766667,5 L9.99533333,5 C9.71266667,5 9.45766667,5.11733333 9.27566667,5.306 L9.27533333,5.30566667 L3.27533333,11.3056667 L3.278,11.3083333 C3.106,11.488 3,11.7316667 3,12 C3,12.5523333 3.44766667,13 4,13 C4.30333333,13 4.575,12.8646667 4.75833333,12.6513333 L9.99766667,7.412 L15.3056667,12.72 L15.306,12.7196667 C15.486,12.893 15.7303333,13 16,13 C16.5523333,13 17,12.5523333 17,12 C17,11.7303333 16.893,11.486 16.7196667,11.306 Z" fill-rule="evenodd"/>
</symbol>
<symbol viewBox="0 0 20 20" id="heart">
    <path d="M20,4.67095758 C20,8.08559173 17.7811927,12.0985092 13.3435782,16.7096206 L10.0638527,20 L6.65135724,16.7096206 C2.21711908,12.0985092 1.77635684e-15,8.08559173 1.77635684e-15,4.67095758 C1.77635684e-15,3.35483265 0.505757171,2.21507069 1.51727151,1.25176117 C2.42317565,0.417268633 3.71224572,-1.77635684e-15 5.38443205,-1.77635684e-15 C6.88636104,-1.77635684e-15 8.05959255,0.378891906 8.9042259,1.13667572 C9.47299169,1.66746432 9.84592927,2.21507069 10.022989,2.7795843 C10.1694629,2.21507069 10.4946847,1.70731707 10.9987537,1.25632344 C11.9999901,0.418789389 13.2056445,-1.77635684e-15 14.6155679,-1.77635684e-15 C16.2843779,-1.77635684e-15 17.573448,0.417268633 18.4827781,1.25176117 C19.4942428,2.21815693 20,3.35787416 20,4.67095758 L20,4.67095758 Z" id="heart-Shape" sketch:type="MSShapeGroup"/>
</symbol>
<symbol viewBox="0 0 20 20" id="smiling-face-1">
    <path d="M10,20 C15.5228478,20 20,15.5228478 20,10 C20,4.47715223 15.5228478,0 10,0 C4.47715223,0 0,4.47715223 0,10 C0,15.5228478 4.47715223,20 10,20 L10,20 Z M6.4,8 C6.84182784,8 7.2,7.64182784 7.2,7.2 C7.2,6.75817216 6.84182784,6.4 6.4,6.4 C5.95817216,6.4 5.6,6.75817216 5.6,7.2 C5.6,7.64182784 5.95817216,8 6.4,8 L6.4,8 Z M13.6,8 C14.0418278,8 14.4,7.64182784 14.4,7.2 C14.4,6.75817216 14.0418278,6.4 13.6,6.4 C13.1581722,6.4 12.8,6.75817216 12.8,7.2 C12.8,7.64182784 13.1581722,8 13.6,8 L13.6,8 Z M14.4,15.2 L14.4,14.4 C14.4,14.4 12.8,12.8 10.0149414,12.8 C7.2298828,12.8 5.6,14.4 5.6,14.4 L5.6,15.2 C5.6,15.2 7.2298828,13.6 10.0149414,13.6 C12.8,13.6 14.4,15.2 14.4,15.2 Z" fill-rule="evenodd"/>
</symbol>
<symbol viewBox="0 0 20 20" id="smiling-face-2">
    <path d="M10,20 C15.5228478,20 20,15.5228478 20,10 C20,4.47715223 15.5228478,0 10,0 C4.47715223,0 0,4.47715223 0,10 C0,15.5228478 4.47715223,20 10,20 L10,20 Z M6.4,8 C6.84182784,8 7.2,7.64182784 7.2,7.2 C7.2,6.75817216 6.84182784,6.4 6.4,6.4 C5.95817216,6.4 5.6,6.75817216 5.6,7.2 C5.6,7.64182784 5.95817216,8 6.4,8 L6.4,8 Z M13.6,8 C14.0418278,8 14.4,7.64182784 14.4,7.2 C14.4,6.75817216 14.0418278,6.4 13.6,6.4 C13.1581722,6.4 12.8,6.75817216 12.8,7.2 C12.8,7.64182784 13.1581722,8 13.6,8 L13.6,8 Z M6.37228941,15.7218477 L6.88651949,16.3346833 L13.6277106,10.6781523 L13.1134805,10.0653167 L6.37228941,15.7218477 Z" fill-rule="evenodd"/>
</symbol>
<symbol viewBox="0 0 20 20" id="smiling-face-3">
    <path d="M10,20 C15.5228478,20 20,15.5228478 20,10 C20,4.47715223 15.5228478,0 10,0 C4.47715223,0 0,4.47715223 0,10 C0,15.5228478 4.47715223,20 10,20 L10,20 Z M6.4,8 C6.84182784,8 7.2,7.64182784 7.2,7.2 C7.2,6.75817216 6.84182784,6.4 6.4,6.4 C5.95817216,6.4 5.6,6.75817216 5.6,7.2 C5.6,7.64182784 5.95817216,8 6.4,8 L6.4,8 Z M13.6,8 C14.0418278,8 14.4,7.64182784 14.4,7.2 C14.4,6.75817216 14.0418278,6.4 13.6,6.4 C13.1581722,6.4 12.8,6.75817216 12.8,7.2 C12.8,7.64182784 13.1581722,8 13.6,8 L13.6,8 Z M5.6,12.8 L5.6,13.6 L14.4,13.6 L14.4,12.8 L5.6,12.8 Z" fill-rule="evenodd"/>
</symbol>
<symbol viewBox="0 0 20 20" id="smiling-face-4">
    <path d="M10,20 C15.5228478,20 20,15.5228478 20,10 C20,4.47715223 15.5228478,0 10,0 C4.47715223,0 0,4.47715223 0,10 C0,15.5228478 4.47715223,20 10,20 L10,20 Z M6.4,8 C6.84182784,8 7.2,7.64182784 7.2,7.2 C7.2,6.75817216 6.84182784,6.4 6.4,6.4 C5.95817216,6.4 5.6,6.75817216 5.6,7.2 C5.6,7.64182784 5.95817216,8 6.4,8 L6.4,8 Z M13.6,8 C14.0418278,8 14.4,7.64182784 14.4,7.2 C14.4,6.75817216 14.0418278,6.4 13.6,6.4 C13.1581722,6.4 12.8,6.75817216 12.8,7.2 C12.8,7.64182784 13.1581722,8 13.6,8 L13.6,8 Z M9.98505856,14.4 C7.2,14.4 5.6,12.8 5.6,12.8 L5.6,13.6 C5.6,13.6 7.2,15.2 9.98505856,15.2 C12.7701172,15.2 14.4,13.6 14.4,13.6 L14.4,12.8 C14.4,12.8 12.7701172,14.4 9.98505856,14.4 L9.98505856,14.4 Z" fill-rule="evenodd"/>
</symbol>
<symbol viewBox="0 0 20 20" id="smiling-face-5">
    <path d="M10,20 C15.5228478,20 20,15.5228478 20,10 C20,4.47715223 15.5228478,0 10,0 C4.47715223,0 0,4.47715223 0,10 C0,15.5228478 4.47715223,20 10,20 L10,20 Z M6.4,8 C6.84182784,8 7.2,7.64182784 7.2,7.2 C7.2,6.75817216 6.84182784,6.4 6.4,6.4 C5.95817216,6.4 5.6,6.75817216 5.6,7.2 C5.6,7.64182784 5.95817216,8 6.4,8 L6.4,8 Z M13.6,8 C14.0418278,8 14.4,7.64182784 14.4,7.2 C14.4,6.75817216 14.0418278,6.4 13.6,6.4 C13.1581722,6.4 12.8,6.75817216 12.8,7.2 C12.8,7.64182784 13.1581722,8 13.6,8 L13.6,8 Z M5.6,12.8 L5.6,13.6 C5.6,13.6 7.2,15.2 9.98505856,15.2 C12.7701172,15.2 14.4,13.6 14.4,13.6 L14.4,12.8 L9.9850584,12.8 L5.6,12.8 Z" fill-rule="evenodd"/>
</symbol>

<symbol viewBox="0 0 20 19" id="star">
    <polygon points="10 15 4.12214748 18.0901699 5.24471742 11.545085 0.489434837 6.90983006 7.06107374 5.95491503 10 0 12.9389263 5.95491503 19.5105652 6.90983006 14.7552826 11.545085 15.8778525 18.0901699 "/>
</symbol>
<symbol viewBox="0 0 20 20" id="tick">
    <path d="M0,13.3333333 L8.42105263,20 C8.42105263,20 16.8421053,8.57142857 20,8.57142857 L20,0 C20,0 8.42105263,12.3809524 8.42105263,15.2380952 L4.21052632,9.52380952 L0,13.3333333 Z" id="tick-Path-23" sketch:type="MSShapeGroup"/>
</symbol>
<symbol viewBox="0 0 41 46" id="thumb-down">
<path transform="translate(20.500000, 22.502509) scale(1, -1) translate(-20.500000, -22.502509) " d="M40,29.0060188 C40,30.4670188 39.208,31.7330188 38.037,32.4300188 C38.629,33.1280188 39,34.0200188 39,35.0060188 C39,36.4680188 38.207,37.7320188 37.037,38.4300188 C37.629,39.1270188 38,40.0190188 38,41.0050188 C38,43.2140188 36.209,45.0050188 34,45.0050188 L10.596,45.0030188 C8.994,44.9100188 7.578,44.1550188 6.621,43.0030188 L0,43.0030188 L0,19.0030188 L8.387,19.0030188 L15,13.0050192 L16,3.00501883 C16.541,-0.256981168 19,0.00501883186 19,0.00501883186 C21.212,0.00501883186 22,1.00501883 22,1.00501883 C25,4.00501883 25,9.00501883 25,9.00501883 C25,15.6130188 22,19.0050188 22,19.0050188 L37,19.0050188 C39.209,19.0050188 41,20.7960188 41,23.0050188 C41,24.4670188 40.207,25.7330188 39.037,26.4310188 C39.629,27.1280188 40,28.0200188 40,29.0060188 Z"/>
</symbol>
<symbol viewBox="0 0 41 46" id="thumb-up">
<path d="M40,29.0060188 C40,30.4670188 39.208,31.7330188 38.037,32.4300188 C38.629,33.1280188 39,34.0200188 39,35.0060188 C39,36.4680188 38.207,37.7320188 37.037,38.4300188 C37.629,39.1270188 38,40.0190188 38,41.0050188 C38,43.2140188 36.209,45.0050188 34,45.0050188 L10.596,45.0030188 C8.994,44.9100188 7.578,44.1550188 6.621,43.0030188 L0,43.0030188 L0,19.0030188 L8.387,19.0030188 L15,13.0050192 L16,3.00501883 C16.541,-0.256981168 19,0.00501883186 19,0.00501883186 C21.212,0.00501883186 22,1.00501883 22,1.00501883 C25,4.00501883 25,9.00501883 25,9.00501883 C25,15.6130188 22,19.0050188 22,19.0050188 L37,19.0050188 C39.209,19.0050188 41,20.7960188 41,23.0050188 C41,24.4670188 40.207,25.7330188 39.037,26.4310188 C39.629,27.1280188 40,28.0200188 40,29.0060188 Z"/>
</symbol></svg>
