<?xml version="1.0"?><svg version="1.2" baseProfile="tiny-ps" viewBox="0 0 116 116" xmlns="http://www.w3.org/2000/svg" xmlns:xlink="http://www.w3.org/1999/xlink"><title>moreants</title><g><g fill="#f9f9f9" transform="matrix(.1 0 0 -.1 0 116)"><path d="M0 580V0h1160v1160H0V580z"/></g><g fill="#969696" transform="matrix(.1 0 0 -.1 0 116)"><path d="M0 580V0h1160v1160H0V580zm350 160c0-11 1-20 3-20 1 0 20 9 42 20l39 20h167l22-11c12-6 32-21 45-32l22-20 23 21c12 11 35 25 50 31l28 11h160l29-15c15-8 38-27 49-41l21-27V434l15-20c8-10 15-22 15-26v-8H820v261l-10 20-11 19h-27c-33 0-45-8-61-37l-11-22V380H470v261l-10 20-11 19h-68l-15-22-16-22V380H90v8c0 4 7 16 15 26l15 20v272l-15 20c-8 10-15 22-15 27v7h260v-20z"/></g><g fill="#606060" transform="matrix(.1 0 0 -.1 0 116)"><path d="M0 580V0h1160v1160H0V580zm350 160c0-11 3-20 6-20s17 9 31 20l26 20h202l33-20c17-11 32-24 32-30v-10l42 30 41 30h202l33-20 33-20 15-35 14-34V424l16-22 15-22H820v256l-16 22-15 22h-48l-15-22-16-22V379l-122 3-123 3-3 134-3 135-11 13-10 13h-45l-19-21-19-21-3-129-4-129H88l8 18 9 17 3 154 3 154-10 10c-6 6-11 15-11 19v8h260v-20z"/></g><g fill="#2e2e2e" transform="matrix(.1 0 0 -.1 0 116)"><path d="M0 580V0h1159v580l1 580H0V580zm357 171 5-19 41 19 42 19h65c79 0 125-12 156-41l23-22 31 26 30 26 46 7c25 3 75 4 110 1l64-5 25-16c14-10 35-31 45-49l20-32V427l17-19 17-18-11-11-10-10-129 3-129 3-3 140-2 140-17 13c-22 16-33 15-58-4l-20-15-5-137-5-137H465l-3 135-3 134-16 18c-19 22-33 23-59 4l-19-14-5-139-5-138-129-3-129-3-10 10-9 9 16 23 16 23v279l-16 18-16 18 7 10 6 11h261l5-19z"/></g><g fill="#151515" transform="matrix(.1 0 0 -.1 0 116)"><path d="M0 580V0h1159v1160H0V580zm360 175c0-8 2-15 4-15s20 7 39 15l36 15h160l28-10c15-6 34-18 41-28l13-17 17 13c9 7 28 17 42 24l25 12 95 3 95 4 35-18 35-18 22-40 23-40V421l10-6c6-3 10-15 10-26v-19H810v276l-12 12c-7 7-20 12-30 12h-17l-21-22-20-22V369l-127 3-128 3-3 137-3 136-14 12-14 12-21-7-21-7-10-25-9-24V370H81l-5 9c-3 4 1 17 9 27l14 19 1 152v152l-10 6c-5 3-10 13-10 21v14h280v-15z"/></g><g fill="#070707" transform="matrix(.1 0 0 -.1 0 116)"><path d="M0 1120v-40l58-1c31 0 80-4 107-7l50-7-10-7c-6-3-33-9-60-12-28-3-71-9-97-12l-48-7V690h88c12 0 9 24-6 42l-14 17 5 16 6 15h281v-30l28 6c15 4 35 11 44 15 24 13 124 11 172-3 22-6 51-21 64-32l23-20 8 12c4 7 31 22 61 33l53 20 71-7c39-3 85-12 103-20l32-13 28-40 28-39 20-6c11-3 30-6 43-6h22v510H0v-40zm1095-130c3-5 15-10 26-10h19v-30h-80v18c0 29 22 43 35 22zm-85-25v-15h-61l13 15c7 8 21 14 31 15h17v-15zM210 800v-9l-15 5c-8 4-15 8-15 10s7 4 15 4 15-4 15-10zM17 125 0 113V0h144c147 0 206 6 206 21v9l-27-11-26-10-7 12-7 11-7-11c-11-17-24-13-31 9l-6 20h-59v21l-10-6-9-6-12 19-12 19-25-5-25-5-9 16c-5 9-17 21-26 26l-17 9-18-13zm73-9c0-9 5-16 10-16 6 0 10 4 10 9 0 6-4 13-10 16l-10 6v-15zm150-46c0-5 5-10 11-10h10l-6 10c-3 6-8 10-11 10-2 0-4-4-4-10z"/></g></g></svg>